<?xml version="1.0" standalone="no"?>
<!DOCTYPE svg PUBLIC "-//W3C//DTD SVG 20010904//EN"
 "http://www.w3.org/TR/2001/REC-SVG-20010904/DTD/svg10.dtd">
<svg version="1.0" xmlns="http://www.w3.org/2000/svg"
 width="512.000000pt" height="360.000000pt" viewBox="0 0 512.000000 360.000000"
 preserveAspectRatio="xMidYMid meet">

<g transform="translate(0.000000,360.000000) scale(0.100000,-0.100000)"
fill="#000000" stroke="none">
<path d="M1280 3523 c0 -46 -13 -142 -32 -241 l-33 -163 -105 6 c-193 11 -463
35 -633 56 -92 11 -176 17 -187 14 -41 -13 -53 -49 -47 -138 10 -121 42 -239
99 -356 42 -87 62 -116 131 -186 66 -67 98 -90 167 -123 47 -22 114 -46 150
-53 36 -6 71 -13 78 -15 8 -2 12 -27 12 -80 l0 -77 -132 7 c-156 8 -267 18
-511 47 -164 20 -179 20 -202 5 -33 -22 -40 -57 -28 -143 35 -245 216 -388
561 -443 l72 -12 0 -414 0 -414 -295 0 -296 0 -24 -25 -25 -24 0 -311 0 -311
25 -24 24 -25 816 0 815 0 0 80 0 80 -760 0 -760 0 0 80 0 80 760 0 760 0 0
80 0 80 -760 0 -760 0 0 40 0 40 895 0 895 0 -55 -110 -55 -110 0 -185 c0
-184 0 -186 25 -210 l24 -25 671 0 671 0 24 25 c25 24 25 26 25 210 l0 185
-55 110 -55 110 895 0 895 0 0 -40 0 -40 -760 0 -760 0 0 -80 0 -80 760 0 760
0 0 -80 0 -80 -600 0 -600 0 0 -80 0 -80 655 0 656 0 24 25 25 24 0 311 0 311
-25 24 -24 25 -296 0 -295 0 0 415 c0 228 4 415 9 415 30 0 197 34 251 51 213
68 345 211 373 402 12 86 5 121 -28 143 -23 15 -38 15 -202 -5 -244 -29 -355
-39 -510 -47 l-133 -7 0 77 c0 53 4 78 13 80 6 2 41 9 77 15 36 7 103 31 150
53 69 33 101 56 167 123 69 70 89 99 131 186 57 117 89 235 99 356 6 89 -6
125 -47 138 -11 3 -95 -3 -187 -14 -170 -21 -440 -45 -633 -56 l-105 -6 -33
163 c-19 99 -32 195 -32 241 l0 77 -80 0 -80 0 0 -50 c0 -48 -1 -49 -37 -60
-79 -22 -383 -80 -493 -94 -335 -43 -771 -46 -1114 -6 -98 11 -180 19 -182 18
-3 -4 -24 -126 -24 -144 0 -13 208 -39 445 -55 194 -14 596 -6 785 16 174 19
408 59 535 89 55 14 101 23 102 22 2 -2 18 -79 37 -171 40 -199 44 -205 137
-205 102 0 395 20 601 40 109 11 201 20 205 20 3 0 -2 -9 -12 -20 -44 -49
-407 -140 -771 -194 -347 -51 -672 -74 -1154 -82 -894 -15 -1674 66 -2175 227
-52 16 -100 38 -111 50 l-19 22 55 -6 c283 -32 613 -57 756 -57 96 0 100 5
140 205 19 92 35 169 37 171 1 1 47 -8 102 -22 147 -35 141 -37 155 47 7 39
10 72 7 75 -2 3 -42 14 -88 25 -173 41 -159 33 -159 89 l0 50 -80 0 -80 0 0
-77z m-773 -724 c15 -6 105 -30 198 -54 l170 -44 3 -107 3 -107 -47 7 c-122
16 -268 124 -332 244 -42 79 -42 79 5 61z m4143 5 c0 -24 -72 -132 -117 -178
-64 -64 -172 -123 -246 -132 l-48 -7 3 107 3 107 170 44 c94 24 181 48 195 54
30 12 40 13 40 5z m-3355 -168 c215 -30 480 -53 703 -62 l162 -7 0 -84 0 -83
-560 0 -560 0 0 136 0 137 38 -7 c20 -3 118 -17 217 -30z m2785 -101 l0 -135
-80 0 -80 0 0 -80 0 -80 80 0 80 0 0 -40 0 -40 -1200 0 -1200 0 0 -80 0 -80
1243 0 c695 0 1317 5 1412 10 170 10 440 34 548 49 66 9 69 4 38 -58 -38 -73
-136 -142 -251 -175 -68 -19 -354 -60 -560 -81 -1107 -108 -2847 -76 -3584 65
-162 32 -281 101 -327 191 -31 62 -28 67 39 58 207 -29 635 -59 840 -59 l122
0 0 80 0 80 -80 0 -80 0 0 40 0 40 1360 0 1360 0 0 80 0 80 -400 0 -400 0 0
85 0 85 68 0 c175 0 679 44 902 79 63 10 123 19 133 20 15 1 17 -12 17 -134z
m-1280 -55 l0 -80 -240 0 -240 0 0 80 0 80 240 0 240 0 0 -80z m-1800 -895
c721 -70 1836 -85 2670 -35 202 12 607 48 633 56 15 5 17 -3 17 -80 l0 -86
-80 0 -80 0 0 -80 0 -80 80 0 80 0 0 -240 0 -240 -80 0 -80 0 0 135 c0 131 -1
137 -25 160 l-24 25 -271 0 -271 0 -24 -25 c-24 -23 -25 -29 -25 -160 l0 -135
-240 0 -240 0 0 175 c0 173 0 176 -25 200 l-24 25 -431 0 -431 0 -24 -25 c-25
-24 -25 -27 -25 -200 l0 -175 -240 0 -240 0 0 135 c0 131 -1 137 -25 160 l-24
25 -271 0 -271 0 -24 -25 c-24 -23 -25 -29 -25 -160 l0 -135 -80 0 -80 0 0
240 0 240 1440 0 1440 0 0 80 0 80 -1440 0 -1440 0 0 85 c0 83 1 85 23 80 12
-2 92 -11 177 -20z m1880 -665 l0 -120 -320 0 -320 0 0 120 0 120 320 0 320 0
0 -120z m-1440 -40 l0 -80 -160 0 -160 0 0 80 0 80 160 0 160 0 0 -80z m2560
0 l0 -80 -160 0 -160 0 0 80 0 80 160 0 160 0 0 -80z m-1120 -360 l0 -120
-320 0 -320 0 0 120 0 120 320 0 320 0 0 -120z m-828 -269 c-41 -121 -52 -117
-52 18 0 108 1 113 38 187 l37 75 3 -98 c2 -86 -1 -109 -26 -182z m1068 21 c0
-138 -11 -143 -52 -22 -24 71 -28 100 -28 185 l1 100 39 -75 c38 -74 39 -76
40 -188z m-204 -74 l13 -38 -369 0 c-291 0 -368 3 -365 13 2 6 9 24 15 40 l10
27 341 -2 342 -3 13 -37z"/>
<path d="M1360 2080 l0 -80 80 0 80 0 0 80 0 80 -80 0 -80 0 0 -80z"/>
<path d="M3840 1360 l0 -80 80 0 80 0 0 80 0 80 -80 0 -80 0 0 -80z"/>
<path d="M3440 160 l0 -80 80 0 80 0 0 80 0 80 -80 0 -80 0 0 -80z"/>
</g>
</svg>
